# xmcd CD database file
#
# Track frame offsets:
#	150
#	26332
#	53247
#	81227
#	108660
#	132312
#	167612
#	185210
#	209542
#	231300
#
# Disc length: 3405 seconds
#
# Revision: 1
# Processed by: cddbd v1.5.2PL0 Copyright (c) Steve Scherf et al.
# Submitted via: CDex 1.51
#
DISCID=8e0d4b0a
DTITLE=Paula Cole Band - Amen.
DYEAR=1999
DGENRE=Rock
TTITLE0=I Believe In Love
TTITLE1=Amen
TTITLE2=La Tonya
TTITLE3=Pearl
TTITLE4=Be Somebody
TTITLE5=Rhythm Of Life
TTITLE6=Free
TTITLE7=Sunwannee Jo
TTITLE8=God Is Watching
TTITLE9=Feelin' Da Love (feat. Missy Misdemeanor Elliot)
EXTD=YEAR: 1999
EXTT0=
EXTT1=
EXTT2=
EXTT3=
EXTT4=
EXTT5=
EXTT6=
EXTT7=
EXTT8=
EXTT9=
PLAYORDER=
